<svg viewBox="0 0 8 8" xmlns="http://www.w3.org/2000/svg"><path d="M7.003 0C7.553 0 8 .453 8 .997v6.006c0 .55-.453.997-.997.997H.997C.447 8 0 7.547 0 7.003V.997C0 .447.453 0 .997 0h6.006zM3.721.53l-.975 1.153a.473.473 0 0 0 0 .59.317.317 0 0 0 .5 0l.353-.417v4.082l-.353-.417a.317.317 0 0 0-.5 0 .473.473 0 0 0 0 .591l.973 1.15c.152.179.398.179.55 0l.975-1.153a.473.473 0 0 0 0-.59.317.317 0 0 0-.5 0l-.437.515V1.754l.437.517a.317.317 0 0 0 .5 0 .473.473 0 0 0 0-.591L4.272.53a.348.348 0 0 0-.55 0z" fill="#42526E" fill-rule="nonzero"/></svg>
